<svg viewBox="0 0 512.003 512.003" xmlns="http://www.w3.org/2000/svg">
  <path fill="#B3404A" d="M328.092 433.325H89.885C40.322 433.325 0 393.003 0 343.441c0-8.126 6.589-14.713 14.713-14.713s14.713 6.587 14.713 14.713c0 33.336 27.123 60.457 60.458 60.457h238.207c8.125 0 14.713 6.587 14.713 14.713 0 8.127-6.588 14.714-14.712 14.714z"/>
  <circle fill="#F4B2B0" cx="158.345" cy="236.003" r="101.11"/>
  <path fill="#B3404A" d="M461.302 262.552c4.738-14.176 7.13-28.959 7.13-44.127 0-77.058-62.691-139.747-139.747-139.747-44.798 0-86.416 21.423-112.554 56.927-17.394-10.048-37.181-15.425-57.762-15.425-.578 0-1.158.004-1.739.013-30.933.458-59.839 12.933-81.388 35.128-21.551 22.197-33.168 51.457-32.711 82.39.452 30.63 12.721 59.334 34.548 80.823 21.805 21.467 50.654 33.289 81.231 33.289.578 0 1.158-.004 1.739-.013 63.856-.943 115.041-53.661 114.1-117.52-.453-30.63-12.723-59.334-34.55-80.823-.016-.016-.034-.031-.052-.049 20.622-28.257 53.617-45.317 89.138-45.317 60.832 0 110.32 49.49 110.32 110.32 0 16.155-3.439 31.756-10.218 46.368-1.82 3.924-1.822 8.45-.004 12.375s5.27 6.852 9.44 8.001c26.113 7.199 44.352 31.161 44.352 58.271 0 33.336-27.123 60.457-60.459 60.457-8.125 0-14.713 6.587-14.713 14.713 0 8.126 6.589 14.713 14.713 14.713 49.563 0 89.885-40.322 89.885-89.884 0-33.939-20.201-65.24-50.698-80.043z"/>
  <path fill="#B3404A" d="M383.5 246.019c-8.025 0-14.588-6.444-14.707-14.496-.19-12.859-5.375-24.874-14.603-33.832-9.227-8.959-21.368-13.789-34.247-13.597-8.11.122-14.807-6.369-14.928-14.494-.119-8.125 6.369-14.809 14.496-14.93 20.771-.3 40.313 7.474 55.179 21.908 14.866 14.434 23.222 33.792 23.528 54.51.119 8.125-6.369 14.809-14.496 14.93-.075 0-.15.001-.222.001z"/>
</svg>
